<?xml version="1.0" encoding="UTF-8"?>
<!DOCTYPE svg PUBLIC "-//W3C//DTD SVG 1.1//EN" "http://www.w3.org/Graphics/SVG/1.1/DTD/svg11.dtd">
<!-- Creator: CorelDRAW X7 -->
<svg xmlns="http://www.w3.org/2000/svg" xml:space="preserve" width="210mm" height="330mm" version="1.1" style="shape-rendering:geometricPrecision; text-rendering:geometricPrecision; image-rendering:optimizeQuality; fill-rule:evenodd; clip-rule:evenodd"
viewBox="0 0 21000 33000"
 xmlns:xlink="http://www.w3.org/1999/xlink">
 <defs>
  <style type="text/css">
   <![CDATA[
    .fil1 {fill:#E62129}
    .fil0 {fill:white}
   ]]>
  </style>
 </defs>
 <g id="Layer_x0020_1">
  <metadata id="CorelCorpID_0Corel-Layer"/>
  <rect class="fil0" x="8298" y="14298" width="4403" height="4403"/>
  <g id="_2026545071824">
   <path class="fil1" d="M10833 16566c0,354 -3,734 -3,1088 78,2 121,-4 241,-4 0,-271 -2,-564 -2,-835 414,40 664,-171 752,-631 17,-648 -260,-928 -831,-842 -310,80 -463,369 -458,866l-77 0 0 -862 -211 1 0 1105 509 0c0,-145 0,-289 1,-434 41,-297 184,-450 430,-458 280,12 428,170 445,476 -38,340 -177,510 -416,510 -93,11 -220,18 -380,20z"/>
   <path class="fil1" d="M11211 16453c-119,0 -238,0 -357,0 0,-134 0,-267 0,-400 29,-309 183,-432 460,-369 141,31 232,156 221,403 -24,218 -109,305 -324,366zm-1 -220c-58,0 -116,0 -174,0 0,-65 0,-129 0,-194 14,-150 89,-210 224,-179 68,15 113,75 107,196 -12,105 -53,148 -157,177z"/>
   <path class="fil1" d="M10167 16434c0,-354 -2,-733 -2,-1087 -78,0 -155,-4 -234,-4 0,272 0,571 0,843 -414,-41 -664,170 -752,630 -17,648 260,928 831,842 310,-80 463,-369 458,-866l77 0 0 862 211 -1 0 -1105 -509 0c0,145 0,289 0,434 -42,297 -185,450 -431,458 -280,-12 -428,-170 -445,-476 38,-340 177,-510 416,-510 93,-11 220,-18 380,-20z"/>
   <path class="fil1" d="M9789 16547c119,0 238,0 357,0 0,134 0,267 0,400 -29,309 -183,432 -460,369 -140,-31 -232,-156 -221,-403 24,-218 109,-305 324,-366zm1 220c58,0 116,0 174,0 0,65 0,129 0,194 -14,150 -89,210 -224,179 -68,-15 -113,-75 -107,-196 12,-105 53,-148 157,-177z"/>
  </g>
 </g>
</svg>
